. 
  
http://www.torrenting.com/        :     Greatest Movie Tracker on The Net!!!
 
http://www.Torrenting.com          :     Once & For all ;)


               www . Torrenting . Com 

(((((((((((((= Enjoy No RAR releases =))))))))))))))))))))


...................................NFO:....................................

.[img]http://img84.imageshack.us/img84/1945/phase7.jpg[/img]


[color=blue][size=5][b]Phase.7.2010.DVDRip.XVID.AC3.HQ.Hive-CM8[/b][/size][/color]


[b]Thx Hive

CM8 Doing It Right The First Time :D


Source: R1 DVD-R

DVD quality was ok, added brightness, sharpness, rgb and denoise.
got nice

Note:
Original Language of the Movie is Spanish, the English R1 DVD is English dubbed,
so voices wont match lips but the complete Movie is in English.
enjoy

Video: 720x304 @bitrate 1400 2pass
Audio: English AC3 5.1 @448
Sample: Yes, included[/b]
 
http://www.imdb.com/title/tt1568816/


General
Complete name                    : Phase.7.2010.DVDRip.XVID.AC3.HQ.Hive-CM8.avi
Format                           : AVI
Format/Info                      : Audio Video Interleave
File size                        : 1.26 GiB
Duration                         : 1h 37mn
Overall bit rate                 : 1 857 Kbps
Writing application              : Nandub v1.0rc2
Writing library                  : Nandub build 1853/release

Video
ID                               : 0
Format                           : MPEG-4 Visual
Format profile                   : Advanced Simple@L5
Format settings, BVOP            : 2
Format settings, QPel            : Yes
Format settings, GMC             : No warppoints
Format settings, Matrix          : Default (H.263)
Muxing mode                      : Packed bitstream
Codec ID                         : XVID
Codec ID/Hint                    : XviD
Duration                         : 1h 37mn
Bit rate                         : 1 400 Kbps
Width                            : 720 pixels
Height                           : 304 pixels
Display aspect ratio             : 2.35:1
Frame rate                       : 23.976 fps
Color space                      : YUV
Chroma subsampling               : 4:2:0
Bit depth                        : 8 bits
Scan type                        : Progressive
Compression mode                 : Lossy
Bits/(Pixel*Frame)               : 0.267
Stream size                      : 972 MiB (75%)
Writing library                  : XviD 1.2.1 (UTC 2008-12-04)

Audio
ID                               : 1
Format                           : AC-3
Format/Info                      : Audio Coding 3
Mode extension                   : CM (complete main)
Codec ID                         : 2000
Duration                         : 1h 37mn
Bit rate mode                    : Constant
Bit rate                         : 448 Kbps
Channel(s)                       : 6 channels
Channel positions                : Front: L C R, Side: L R, LFE
Sampling rate                    : 48.0 KHz
Bit depth                        : 16 bits
Compression mode                 : Lossy
Delay relative to video          : 10ms
Stream size                      : 311 MiB (24%)
Alignment                        : Split accross interleaves
Interleave, duration             : 42 ms (1.00 video frame)
Interleave, preload duration     : 500 ms


Plot:
Inside a quarantined apartment building, during a global epidemic,
a man must protect his pregnant wife from their new neighbors.


Cast:
Daniel Hendler 	 ... 	 Coco
Jazmn Stuart 	 ... 	 Pipi
Yayo Guridi 	 ... 	 Horacio
Federico Luppi 	 ... 	 Zanutto


[img]http://img607.imageshack.us/img607/1463/64929946.png[/img]
[img]http://img267.imageshack.us/img267/1620/phphph.png[/img]
[img]http://img821.imageshack.us/img821/774/phphphph.png[/img]
[img]http://img844.imageshack.us/img844/8035/phphphphph.png[/img]
[IMG]http://img818.imageshack.us/img818/326/phphq.png[/IMG]



Greetz

ViSiON,SiC,SANTi,3LT0N,YanKeeS,MAGNET,THC,T0XiC,LKRG,FANTASIA-PLAY,FANTASIA-M,FLAWL3SS,
D2U,WBZ,BHRG,NOVA,Vik,Rapeseed,SAFC,goldadvance,MEMORY100,KaN1vE,Unevano,Pinnz,Wayne
Mr Hive,cedrict wink,and all P2P groups
Great Work Guys :D

LOOKING FOR ANYTHING YOU WANT TO LOOK AND SOUND BETTER

CM8@hushmail.com